<svg width="400" height="400" viewBox="0 0 400 400" xmlns="http://www.w3.org/2000/svg">
  <!-- Background -->
  <rect width="400" height="400" fill="#f8f9fa"/>
  
  <!-- T-shirt outline -->
  <path d="M120 120 L120 100 Q120 80 140 80 L160 80 Q160 70 170 60 Q180 50 200 50 Q220 50 230 60 Q240 70 240 80 L260 80 Q280 80 280 100 L280 120 L320 140 L320 160 L300 160 L300 350 Q300 370 280 370 L120 370 Q100 370 100 350 L100 160 L80 160 L80 140 L120 120 Z" 
        fill="white" 
        stroke="#e9ecef" 
        stroke-width="2"/>
  
  <!-- T-shirt sleeves -->
  <ellipse cx="90" cy="150" rx="15" ry="30" fill="white" stroke="#e9ecef" stroke-width="2"/>
  <ellipse cx="310" cy="150" rx="15" ry="30" fill="white" stroke="#e9ecef" stroke-width="2"/>
  
  <!-- Collar -->
  <path d="M170 80 Q200 65 230 80" fill="none" stroke="#e9ecef" stroke-width="2"/>
  
  <!-- Subtle shading -->
  <path d="M280 100 L280 120 L300 140 L300 160 L280 160 L280 350 Q280 365 270 365 L270 110 Q270 100 280 100 Z" 
        fill="#f1f3f4" opacity="0.5"/>
  
  <!-- Label/tag -->
  <rect x="180" y="300" width="40" height="20" rx="2" fill="#e9ecef"/>
  <text x="200" y="312" text-anchor="middle" font-family="Arial, sans-serif" font-size="8" fill="#6c757d">100% Cotton</text>
  
  <!-- Size indicator -->
  <text x="200" y="340" text-anchor="middle" font-family="Arial, sans-serif" font-size="12" font-weight="bold" fill="#495057">Kids Size</text>
</svg>